<svg xmlns="http://www.w3.org/2000/svg" width="64" height="64" viewBox="0 0 64 64">
  <rect width="64" height="64" rx="14" fill="#020617"/>
  <defs>
    <linearGradient id="g5" x1="0" y1="0" x2="1" y2="1">
      <stop offset="0" stop-color="#38bdf8"/>
      <stop offset="1" stop-color="#0ea5e9"/>
    </linearGradient>
  </defs>

  <!-- Hexágono de fundo, sutil -->
  <path d="M32 8 L52 19.5 V42.5 L32 54 L12 42.5 V19.5 Z"
        fill="url(#g5)" opacity="0.12"/>
  <path d="M32 8 L52 19.5 V42.5 L32 54 L12 42.5 V19.5 Z"
        fill="none" stroke="url(#g5)" stroke-width="1.4" opacity="0.5"/>

  <!-- Escudo central -->
  <path d="M32 15 L45 20 V32 C45 41 39.5 47 32 50 C24.5 47 19 41 19 32 V20 Z"
        fill="none" stroke="url(#g5)" stroke-width="2.6" stroke-linejoin="round"/>

  <!-- Rede de nodes dentro do escudo -->
  <circle cx="32" cy="25" r="2.2" fill="#38bdf8"/>
  <circle cx="25.5" cy="33" r="2.2" fill="#38bdf8"/>
  <circle cx="38.5" cy="33" r="2.2" fill="#38bdf8"/>
  <circle cx="32" cy="40" r="2.2" fill="#38bdf8"/>
  <line x1="32" y1="25" x2="25.5" y2="33" stroke="#38bdf8" stroke-width="1.3"/>
  <line x1="32" y1="25" x2="38.5" y2="33" stroke="#38bdf8" stroke-width="1.3"/>
  <line x1="25.5" y1="33" x2="32" y2="40" stroke="#38bdf8" stroke-width="1.3"/>
  <line x1="38.5" y1="33" x2="32" y2="40" stroke="#38bdf8" stroke-width="1.3"/>
</svg>
